<?xml version="1.0" standalone="no"?><!DOCTYPE svg PUBLIC "-//W3C//DTD SVG 1.1//EN" "http://www.w3.org/Graphics/SVG/1.1/DTD/svg11.dtd"><svg t="1503314617308" class="icon" style="" viewBox="0 0 1658 1024" version="1.1" xmlns="http://www.w3.org/2000/svg" p-id="8385" xmlns:xlink="http://www.w3.org/1999/xlink" width="323.828125" height="200"><defs><style type="text/css"></style></defs><path d="M1265.594463 0H843.458309c-38.953764 0-70.530651 31.578262-70.530651 70.530651v400.741147h-102.400412v81.455029h102.400412v400.741147c0 38.953764 31.578262 70.532026 70.530651 70.532026h422.138904c38.951014 0 70.530651-31.578262 70.530651-70.532026V70.530651c0-38.952389-31.579637-70.530651-70.533401-70.530651zM843.458309 972.800481c-10.659004 0-19.332507-8.673503-19.332507-19.332507V70.532026c0-10.659004 8.670753-19.331132 19.332507-19.331132h422.138904c10.659004 0 19.331132 8.672128 19.331133 19.331132v882.937323c0 10.659004-8.672128 19.332507-19.331133 19.332507h-422.138904v-0.001375z" p-id="8386"></path><path d="M1028.928002 153.601306h-102.400413v102.399038h102.400413V153.601306m153.597181 0h-102.397662v102.399038h102.397662V153.601306M1028.928002 307.199862h-102.400413v102.400413h102.400413v-102.400413m153.597181 0h-102.397662v102.400413h102.397662v-102.400413M1028.928002 460.799794h-102.400413V563.200206h102.400413v-102.400412M445.887913 51.200894c10.939504 0 19.837132 8.899003 19.837133 19.835757v113.925667c0 10.939504-8.899003 19.837132-19.837133 19.837132h-62.726148c-10.939504 0-19.837132-8.899003-19.837132-19.837132v-113.927042c0-10.938129 8.899003-19.835757 19.837132-19.835757l62.726148 0.001375z m0 358.399381c10.939504 0 19.837132 8.899003 19.837133 19.837132V594.563968c0 10.938129-8.899003 19.835757-19.837133 19.835757h-62.726148c-10.939504 0-19.837132-8.899003-19.837132-19.835757V429.437407c0-10.938129 8.899003-19.835757 19.837132-19.835757l62.726148-0.001375z m0 409.600275c10.939504 0 19.837132 8.899003 19.837133 19.837132v113.924292c0 10.938129-8.899003 19.837132-19.837133 19.837132h-62.726148c-10.939504 0-19.837132-8.899003-19.837132-19.837132v-113.925667c0-10.938129 8.899003-19.835757 19.837132-19.835757h62.726148z m0-819.20055h-62.726148C343.928876 0 312.125114 31.803762 312.125114 71.036651v113.925667c0 39.232889 31.803762 71.036651 71.038026 71.036651h62.726148c39.232889 0 71.038026-31.803762 71.038026-71.036651V153.601306h102.399038v317.671867h-102.399038v-41.835766c0-39.232889-31.805137-71.038026-71.038026-71.038026h-62.726148c-39.232889 0-71.038026 31.805137-71.038026 71.038026V594.563968c0 39.230139 31.803762 71.036651 71.038026 71.036651h62.726148c39.232889 0 71.038026-31.806512 71.038026-71.036651v-41.838516h102.399038v317.673242h-102.399038v-31.363762c0-39.232889-31.805137-71.036651-71.038026-71.036651h-62.726148c-39.232889 0-71.038026 31.803762-71.038026 71.036651v113.925667c0 39.232889 31.803762 71.038026 71.038026 71.038026h62.726148c39.232889 0 71.038026-31.805137 71.038026-71.038026v-31.363762h102.399038c28.276885 0 51.199519-22.922633 51.199519-51.199518V153.601306c0-28.276885-22.922633-51.199519-51.199519-51.199518h-102.399038v-31.363762C516.925939 31.803762 485.120803 0 445.887913 0m736.63727 460.799794h-102.397662V563.200206h102.397662v-102.400412m-153.597181 153.601306h-102.400413v102.400413h102.400413v-102.400413m153.597181 0h-102.397662v102.400413h102.397662v-102.400413M1028.928002 768.001031h-102.400413v102.399038h102.400413v-102.399038m153.597181 0h-102.397662v102.399038h102.397662v-102.399038" p-id="8387"></path></svg>