<?xml version="1.0" standalone="no"?><!DOCTYPE svg PUBLIC "-//W3C//DTD SVG 1.1//EN" "http://www.w3.org/Graphics/SVG/1.1/DTD/svg11.dtd"><svg t="1503314483625" class="icon" style="" viewBox="0 0 1024 1024" version="1.1" xmlns="http://www.w3.org/2000/svg" p-id="7704" xmlns:xlink="http://www.w3.org/1999/xlink" width="200" height="200"><defs><style type="text/css"></style></defs><path d="M961.578667 781.525333l-87.893334-105.130666v-191.957334c0-157.568-112-294.826667-260.736-338.773333v-38.442667c0-46.933333-36.906667-85.12-82.304-85.12h-37.418666c-45.312 0-82.218667 38.186667-82.218667 85.12v38.442667c-148.736 43.946667-260.778667 181.205333-260.778667 338.773333v191.957334l-87.850666 105.130666A29.952 29.952 0 0 0 85.333333 830.592h853.333334a29.866667 29.866667 0 0 0 22.912-49.066667zM470.741333 107.221333c0-13.994667 10.069333-25.344 22.442667-25.344h37.461333c12.458667 0 22.528 11.392 22.528 25.344v26.24c-13.568-1.621333-27.264-2.645333-41.173333-2.645333s-27.648 1.024-41.216 2.602667v-26.197334zM149.205333 770.816l53.845334-64.426667a29.952 29.952 0 0 0 6.954666-19.157333v-202.794667c0-159.274667 138.282667-293.888 301.994667-293.888 163.669333 0 301.994667 134.570667 301.994667 293.888v202.794667c0 6.997333 2.474667 13.781333 6.954666 19.157333l53.888 64.426667H149.205333zM608 865.450667a29.866667 29.866667 0 0 0-29.866667 29.866666c0 18.133333-28.288 38.357333-66.133333 38.357334-38.997333 0-66.133333-20.224-66.133333-38.357334a29.866667 29.866667 0 1 0-59.733334 0c0 54.997333 55.296 98.133333 125.909334 98.133334s125.866667-43.136 125.866666-98.133334a29.952 29.952 0 0 0-29.909333-29.866666z" p-id="7705"></path></svg>