<?xml version="1.0" standalone="no"?><!DOCTYPE svg PUBLIC "-//W3C//DTD SVG 1.1//EN" "http://www.w3.org/Graphics/SVG/1.1/DTD/svg11.dtd"><svg t="1503371935407" class="icon" style="" viewBox="0 0 1024 1024" version="1.1" xmlns="http://www.w3.org/2000/svg" p-id="3500" xmlns:xlink="http://www.w3.org/1999/xlink" width="200" height="200"><defs><style type="text/css"></style></defs><path d="M609.256567 866.467597c22.566517 0 41.115957-18.116226 41.667321-39.50125l12.090611-485.829929c0.551363-21.778855-17.683012-40.091996-40.682743-40.564594-23.393562-0.354448-42.139918 16.540902-42.651898 38.280374l-12.090611 486.302527A40.958425 40.958425 0 0 0 608.27199 866.467597h0.984577z m-196.36414 0h0.984578c23.039114 0 41.234106-20.912426 40.682743-42.651898l-12.090612-486.499442c-0.551363-21.739472-19.415869-39.50125-42.651898-39.028653-22.999731 0.51198-41.234106 18.234376-40.682743 40.013231l12.129995 487.484019A42.533749 42.533749 0 0 0 412.892427 866.467597zM392.925195 135.084035h238.110227V78.805584H392.925195v56.278451zM1023.960617 180.020153c0 24.89012-21.306257 45.014884-47.653552 45.014884H47.653552C21.266874 225.07442 0 204.949656 0 180.059536c0-24.811353 21.306257-44.975501 47.653552-44.975501h261.897619V33.7907c0-21.739472 15.359409-33.751317 38.398523-33.751317h328.061229c23.039114 0 38.398523 12.011846 38.398523 33.751317V135.123418h261.897619c26.347294 0 47.653552 20.124764 47.653552 44.975501z m-126.262221 150.679743l-36.350602 650.608823c-1.299642 23.905542-22.212069 42.651898-47.535402 42.651898H210.148225c-25.323334 0-46.23576-18.746356-47.535402-42.651898l-36.350602-650.608823c-1.417792-24.811353 18.785739-46.038845 45.054267-47.338487 26.386677-1.181493 48.677512 17.761778 50.055921 42.573132l33.948233 607.996308h513.319333l33.948233-607.996308c1.378409-24.811353 23.944925-43.715242 50.055921-42.533749 26.268528 1.260259 46.472059 22.448367 45.054267 47.259721z" fill="#666666" p-id="3501"></path></svg>