<?xml version="1.0" standalone="no"?><!DOCTYPE svg PUBLIC "-//W3C//DTD SVG 1.1//EN" "http://www.w3.org/Graphics/SVG/1.1/DTD/svg11.dtd"><svg t="1503373700861" class="icon" style="" viewBox="0 0 1024 1024" version="1.1" xmlns="http://www.w3.org/2000/svg" p-id="5612" xmlns:xlink="http://www.w3.org/1999/xlink" width="200" height="200"><defs><style type="text/css"></style></defs><path d="M822.751 209.777c-13.447-13.447-35.242-13.447-48.707 0-13.465 13.483-13.465 35.277 0 48.725 144.48 144.497 144.48 379.592 0 524.09-144.443 144.461-379.574 144.461-524.089 0-144.479-144.498-144.479-379.593 0-524.09 13.466-13.447 13.466-35.241 0-48.725-13.465-13.447-35.258-13.447-48.706 0C118.232 292.794 72.496 403.144 72.496 520.528S118.232 748.298 201.249 831.279c85.659 85.715 198.195 128.535 310.75 128.535s225.09-42.82 310.752-128.535c83.018-82.98 128.752-193.367 128.752-310.751S905.769 292.794 822.751 209.777z" p-id="5613"></path><path d="M511.999 675.958c19.041 0 34.457-15.452 34.457-34.476L546.456 98.625c0-19.023-15.416-34.438-34.457-34.438S477.542 79.602 477.542 98.625l0 542.857C477.542 660.506 492.958 675.958 511.999 675.958z" p-id="5614"></path></svg>