<?xml version="1.0" standalone="no"?><!DOCTYPE svg PUBLIC "-//W3C//DTD SVG 1.1//EN" "http://www.w3.org/Graphics/SVG/1.1/DTD/svg11.dtd"><svg t="1503372655559" class="icon" style="" viewBox="0 0 1024 1024" version="1.1" xmlns="http://www.w3.org/2000/svg" p-id="4912" xmlns:xlink="http://www.w3.org/1999/xlink" width="200" height="200"><defs><style type="text/css"></style></defs><path d="M237.65519 923.821393c41.992393 0 270.266423 0 270.266423 0l270.292006 0c41.992393 0 104.216573-18.263969 104.216573-90.342588 0-121.19834-272.872784-86.796832-272.872784-211.480552 0-77.027327 120.651894-148.019195 120.651894-326.71404 0-150.889569-98.912777-237.566674-222.287689-237.566674-123.372865 0-222.285642 86.677105-222.285642 237.566674 0 178.694845 120.651894 249.686712 120.651894 326.71404 0 124.68372-272.873808 90.283236-272.873808 211.480552C133.416104 935.296749 237.65519 923.821393 237.65519 923.821393z" p-id="4913"></path></svg>