<?xml version="1.0" standalone="no"?><!DOCTYPE svg PUBLIC "-//W3C//DTD SVG 1.1//EN" "http://www.w3.org/Graphics/SVG/1.1/DTD/svg11.dtd"><svg t="1503372031749" class="icon" style="" viewBox="0 0 1024 1024" version="1.1" xmlns="http://www.w3.org/2000/svg" p-id="4235" xmlns:xlink="http://www.w3.org/1999/xlink" width="200" height="200"><defs><style type="text/css"></style></defs><path d="M976.393768 23.891613C960.646673 8.144516 939.186027 0.015484 917.090542 0 894.948606 0.325161 874.076348 9.150968 858.23635 24.913548L820.362802 62.740645C820.207963 62.926452 820.130542 63.127742 819.991189 63.282581L325.916349 555.963871C324.306026 557.574194 323.469897 559.571611 322.293123 561.429676 320.264736 563.783227 318.499575 566.338065 317.229897 569.249032L266.845381 685.378065C261.828607 696.990968 264.228607 710.461935 272.992478 719.612902 279.062155 725.961289 287.346026 729.383226 295.846672 729.383226 299.578284 729.383226 303.371833 728.717421 306.979575 727.354837L428.125382 681.785806C431.485381 680.531611 434.411834 678.549679 437.090542 676.335484 439.04151 675.096774 441.147316 674.167742 442.773124 672.541937L938.798929 177.909677C938.891832 177.816774 938.9228 177.692903 939.031189 177.6L975.278929 141.522581C1008.073768 108.836129 1008.569252 56.051613 976.393768 23.891613L976.393768 23.891613ZM420.445382 605.713547 392.930542 578.260645 844.300866 128.16 871.800221 155.612903 420.445382 605.713547 420.445382 605.713547ZM930.638931 96.96 916.455705 111.08129 888.832479 83.535484 902.938284 69.445161C907.041511 65.357419 912.367963 63.08129 917.988606 63.003871 923.315058 62.88 928.099576 64.846452 931.660866 68.392258 939.263445 75.979355 938.767961 88.815484 930.638931 96.96L930.638931 96.96ZM905.094194 353.569032C887.628387 353.569032 873.507097 367.674837 873.507097 385.063226L873.507097 905.491611C873.507097 922.849032 859.339356 936.970323 841.92 936.970323L94.76129 936.970323C77.326452 936.970323 63.174194 922.849032 63.174194 905.491611L63.174194 160.547097C63.174194 143.189677 77.326452 129.052903 94.76129 129.052903L611.969031 129.052903C629.419355 129.052903 643.556127 114.947097 643.556127 97.55871 643.556127 80.170323 629.419355 66.064516 611.969031 66.064516L94.76129 66.064516C42.503226 66.064516 0 108.443871 0 160.547097L0 905.491611C0 957.594839 42.503226 999.974192 94.76129 999.974192L841.92 999.974192C894.162581 999.974192 936.68129 957.594839 936.68129 905.491611L936.68129 385.063226C936.68129 367.674837 922.544518 353.569032 905.094194 353.569032Z" p-id="4236"></path></svg>